<?xml version="1.0" encoding="UTF-8"?>
<!DOCTYPE svg PUBLIC "-//W3C//DTD SVG 1.1//EN" "http://www.w3.org/Graphics/SVG/1.1/DTD/svg11.dtd">
<svg version="1.1" xmlns="http://www.w3.org/2000/svg" xmlns:xlink="http://www.w3.org/1999/xlink" width="3300" height="2200">
 <g id="Notes">
  <text style="stroke:none;fill:black;font-family:sans-serif;font-size:13;" transform="matrix(1 0 0 1 263 1933)">Template v.3.0</text>
  <text id="template-version" style="stroke:none;fill:black;font-family:sans-serif;font-size:13;" transform="matrix(1 0 0 1 3036 1933)">Template v.3.0</text>
 </g>
 <g id="Guides">
  <line id="Baseline-S" style="fill:none;stroke:#27AAE1;opacity:1;stroke-width:0.5;" x1="263" x2="3036" y1="696" y2="696"/>
  <line id="Capline-S" style="fill:none;stroke:#27AAE1;opacity:1;stroke-width:0.5;" x1="263" x2="3036" y1="625.541" y2="625.541"/>
  <line id="Baseline-M" style="fill:none;stroke:#27AAE1;opacity:1;stroke-width:0.5;" x1="263" x2="3036" y1="1126" y2="1126"/>
  <line id="Capline-M" style="fill:none;stroke:#27AAE1;opacity:1;stroke-width:0.5;" x1="263" x2="3036" y1="1055.54" y2="1055.54"/>
  <line id="Baseline-L" style="fill:none;stroke:#27AAE1;opacity:1;stroke-width:0.5;" x1="263" x2="3036" y1="1556" y2="1556"/>
  <line id="Capline-L" style="fill:none;stroke:#27AAE1;opacity:1;stroke-width:0.5;" x1="263" x2="3036" y1="1485.54" y2="1485.54"/>
  <line id="left-margin-Regular-M" style="fill:none;stroke:#00AEEF;stroke-width:0.5;opacity:1.0;" x1="1391.0" x2="1391.0" y1="1030.79" y2="1150.12"/>
  <line id="right-margin-Regular-M" style="fill:none;stroke:#00AEEF;stroke-width:0.5;opacity:1.0;" x1="1502.500" x2="1502.500" y1="1030.79" y2="1150.12"/>
 </g>
 <g id="Symbols">
  <g id="Regular-M" transform="matrix(1 0 0 1 1391.0 1126)">
   <path d="M104.5,-37.75 Q104.5,-18.421 92.057,-4.247 L108.4,12.1 Q109.5,13.2 109.5,14.75 Q109.5,16.305 108.4,17.405 Q107.305,18.5 105.75,18.5 Q104.195,18.5 103.1,17.405 L86.752,1.057 Q72.579,13.5 53.25,13.5 Q32.02,13.5 17.01,-1.51 Q2,-16.52 2,-37.75 Q2,-58.98 17.01,-73.99 Q32.02,-89 53.25,-89 Q74.48,-89 89.49,-73.99 Q104.5,-58.98 104.5,-37.75 Z M97,-37.75 Q97,-55.87 84.185,-68.685 Q71.37,-81.5 53.25,-81.5 Q35.13,-81.5 22.315,-68.685 Q9.5,-55.87 9.5,-37.75 Q9.5,-19.63 22.315,-6.815 Q35.13,6 53.25,6 Q71.37,6 84.185,-6.815 Q97,-19.63 97,-37.75 Z"/>
  </g>
 </g>
</svg>
