<?xml version="1.0" encoding="UTF-8"?>
<!DOCTYPE svg PUBLIC "-//W3C//DTD SVG 1.1//EN" "http://www.w3.org/Graphics/SVG/1.1/DTD/svg11.dtd">
<svg version="1.1" xmlns="http://www.w3.org/2000/svg" xmlns:xlink="http://www.w3.org/1999/xlink" width="3300" height="2200">
 <g id="Notes">
  <text style="stroke:none;fill:black;font-family:sans-serif;font-size:13;" transform="matrix(1 0 0 1 263 1933)">Template v.3.0</text>
  <text id="template-version" style="stroke:none;fill:black;font-family:sans-serif;font-size:13;" transform="matrix(1 0 0 1 3036 1933)">Template v.3.0</text>
 </g>
 <g id="Guides">
  <line id="Baseline-S" style="fill:none;stroke:#27AAE1;opacity:1;stroke-width:0.5;" x1="263" x2="3036" y1="696" y2="696"/>
  <line id="Capline-S" style="fill:none;stroke:#27AAE1;opacity:1;stroke-width:0.5;" x1="263" x2="3036" y1="625.541" y2="625.541"/>
  <line id="Baseline-M" style="fill:none;stroke:#27AAE1;opacity:1;stroke-width:0.5;" x1="263" x2="3036" y1="1126" y2="1126"/>
  <line id="Capline-M" style="fill:none;stroke:#27AAE1;opacity:1;stroke-width:0.5;" x1="263" x2="3036" y1="1055.54" y2="1055.54"/>
  <line id="Baseline-L" style="fill:none;stroke:#27AAE1;opacity:1;stroke-width:0.5;" x1="263" x2="3036" y1="1556" y2="1556"/>
  <line id="Capline-L" style="fill:none;stroke:#27AAE1;opacity:1;stroke-width:0.5;" x1="263" x2="3036" y1="1485.54" y2="1485.54"/>
  <line id="left-margin-Regular-M" style="fill:none;stroke:#00AEEF;stroke-width:0.5;opacity:1.0;" x1="1391.0" x2="1391.0" y1="1030.79" y2="1150.12"/>
  <line id="right-margin-Regular-M" style="fill:none;stroke:#00AEEF;stroke-width:0.5;opacity:1.0;" x1="1502.500" x2="1502.500" y1="1030.79" y2="1150.12"/>
 </g>
 <g id="Symbols">
  <g id="Regular-M" transform="matrix(1 0 0 1 1391.0 1126)">
   <path d="M2,-35.25 Q2,-65.09 8.955,-72.045 Q13.369,-76.459 27,-78.072 L27,-82.75 Q27,-84.305 28.1,-85.4 Q29.195,-86.5 30.75,-86.5 Q32.305,-86.5 33.4,-85.4 Q34.5,-84.305 34.5,-82.75 L34.5,-78.709 Q39.646,-79 45.75,-79 L65.75,-79 Q71.854,-79 77,-78.709 L77,-82.75 Q77,-84.305 78.1,-85.4 Q79.195,-86.5 80.75,-86.5 Q82.305,-86.5 83.4,-85.4 Q84.5,-84.305 84.5,-82.75 L84.5,-78.072 Q98.131,-76.459 102.545,-72.045 Q109.5,-65.09 109.5,-35.25 L109.5,-25.25 Q109.5,4.59 102.545,11.545 Q95.59,18.5 65.75,18.5 L45.75,18.5 Q15.91,18.5 8.955,11.545 Q2,4.59 2,-25.25 Z M9.5,-35.25 L9.5,-25.25 Q9.5,1.48 14.26,6.24 Q19.02,11 45.75,11 L65.75,11 Q92.48,11 97.24,6.24 Q102,1.48 102,-25.25 L102,-35.25 Q102,-41.47 101.742,-46.5 L9.758,-46.5 Q9.5,-41.47 9.5,-35.25 Z M101.14,-54 Q99.977,-64.003 97.24,-66.74 Q92.48,-71.5 65.75,-71.5 L45.75,-71.5 Q19.02,-71.5 14.26,-66.74 Q11.523,-64.003 10.36,-54 Z M30.75,-13.885 Q32.305,-13.885 33.4,-12.785 Q34.5,-11.685 34.5,-10.135 Q34.5,-8.58 33.4,-7.48 Q32.305,-6.385 30.75,-6.385 Q29.195,-6.385 28.1,-7.48 Q27,-8.58 27,-10.135 Q27,-11.685 28.1,-12.785 Q29.195,-13.885 30.75,-13.885 Z M80.75,-13.885 Q82.305,-13.885 83.4,-12.785 Q84.5,-11.685 84.5,-10.135 Q84.5,-8.58 83.4,-7.48 Q82.305,-6.385 80.75,-6.385 Q79.195,-6.385 78.1,-7.48 Q77,-8.58 77,-10.135 Q77,-11.685 78.1,-12.785 Q79.195,-13.885 80.75,-13.885 Z M55.75,-13.885 Q57.305,-13.885 58.4,-12.785 Q59.5,-11.685 59.5,-10.135 Q59.5,-8.58 58.4,-7.48 Q57.305,-6.385 55.75,-6.385 Q54.195,-6.385 53.1,-7.48 Q52,-8.58 52,-10.135 Q52,-11.685 53.1,-12.785 Q54.195,-13.885 55.75,-13.885 Z M80.75,-34 Q82.305,-34 83.4,-32.9 Q84.5,-31.805 84.5,-30.25 Q84.5,-28.695 83.4,-27.6 Q82.305,-26.5 80.75,-26.5 Q79.195,-26.5 78.1,-27.6 Q77,-28.695 77,-30.25 Q77,-31.805 78.1,-32.9 Q79.195,-34 80.75,-34 Z M30.75,-34 Q32.305,-34 33.4,-32.9 Q34.5,-31.805 34.5,-30.25 Q34.5,-28.695 33.4,-27.6 Q32.305,-26.5 30.75,-26.5 Q29.195,-26.5 28.1,-27.6 Q27,-28.695 27,-30.25 Q27,-31.805 28.1,-32.9 Q29.195,-34 30.75,-34 Z M55.75,-34 Q57.305,-34 58.4,-32.9 Q59.5,-31.805 59.5,-30.25 Q59.5,-28.695 58.4,-27.6 Q57.305,-26.5 55.75,-26.5 Q54.195,-26.5 53.1,-27.6 Q52,-28.695 52,-30.25 Q52,-31.805 53.1,-32.9 Q54.195,-34 55.75,-34 Z"/>
  </g>
 </g>
</svg>
