<?xml version="1.0" encoding="UTF-8"?>
<!DOCTYPE svg PUBLIC "-//W3C//DTD SVG 1.1//EN" "http://www.w3.org/Graphics/SVG/1.1/DTD/svg11.dtd">
<svg version="1.1" xmlns="http://www.w3.org/2000/svg" xmlns:xlink="http://www.w3.org/1999/xlink" width="3300" height="2200">
 <g id="Notes">
  <text style="stroke:none;fill:black;font-family:sans-serif;font-size:13;" transform="matrix(1 0 0 1 263 1933)">Template v.3.0</text>
  <text id="template-version" style="stroke:none;fill:black;font-family:sans-serif;font-size:13;" transform="matrix(1 0 0 1 3036 1933)">Template v.3.0</text>
 </g>
 <g id="Guides">
  <line id="Baseline-S" style="fill:none;stroke:#27AAE1;opacity:1;stroke-width:0.5;" x1="263" x2="3036" y1="696" y2="696"/>
  <line id="Capline-S" style="fill:none;stroke:#27AAE1;opacity:1;stroke-width:0.5;" x1="263" x2="3036" y1="625.541" y2="625.541"/>
  <line id="Baseline-M" style="fill:none;stroke:#27AAE1;opacity:1;stroke-width:0.5;" x1="263" x2="3036" y1="1126" y2="1126"/>
  <line id="Capline-M" style="fill:none;stroke:#27AAE1;opacity:1;stroke-width:0.5;" x1="263" x2="3036" y1="1055.54" y2="1055.54"/>
  <line id="Baseline-L" style="fill:none;stroke:#27AAE1;opacity:1;stroke-width:0.5;" x1="263" x2="3036" y1="1556" y2="1556"/>
  <line id="Capline-L" style="fill:none;stroke:#27AAE1;opacity:1;stroke-width:0.5;" x1="263" x2="3036" y1="1485.54" y2="1485.54"/>
  <line id="left-margin-Regular-M" style="fill:none;stroke:#00AEEF;stroke-width:0.5;opacity:1.0;" x1="1391.0" x2="1391.0" y1="1030.79" y2="1150.12"/>
  <line id="right-margin-Regular-M" style="fill:none;stroke:#00AEEF;stroke-width:0.5;opacity:1.0;" x1="1482.500" x2="1482.500" y1="1030.79" y2="1150.12"/>
 </g>
 <g id="Symbols">
  <g id="Regular-M" transform="matrix(1 0 0 1 1391.0 1126)">
   <path d="M85.75,-41.5 L5.75,-41.5 Q4.195,-41.5 3.1,-42.6 Q2,-43.695 2,-45.25 Q2,-46.71 2.985,-47.785 L30.485,-77.785 Q31.535,-78.93 33.085,-78.995 Q34.64,-79.065 35.785,-78.015 Q36.93,-76.965 36.995,-75.415 Q37.065,-73.86 36.015,-72.715 L14.275,-49 L85.75,-49 Q87.305,-49 88.4,-47.9 Q89.5,-46.805 89.5,-45.25 Q89.5,-43.695 88.4,-42.6 Q87.305,-41.5 85.75,-41.5 Z M5.75,-29 L85.75,-29 Q87.305,-29 88.4,-27.9 Q89.5,-26.805 89.5,-25.25 Q89.5,-23.79 88.515,-22.715 L61.015,7.285 Q59.965,8.43 58.415,8.495 Q56.86,8.565 55.715,7.515 Q54.57,6.465 54.505,4.915 Q54.435,3.36 55.485,2.215 L77.225,-21.5 L5.75,-21.5 Q4.195,-21.5 3.1,-22.6 Q2,-23.695 2,-25.25 Q2,-26.805 3.1,-27.9 Q4.195,-29 5.75,-29 Z"/>
  </g>
 </g>
</svg>
