<?xml version="1.0" encoding="UTF-8"?>
<!DOCTYPE svg PUBLIC "-//W3C//DTD SVG 1.1//EN" "http://www.w3.org/Graphics/SVG/1.1/DTD/svg11.dtd">
<svg version="1.1" xmlns="http://www.w3.org/2000/svg" xmlns:xlink="http://www.w3.org/1999/xlink" width="3300" height="2200">
 <g id="Notes">
  <text style="stroke:none;fill:black;font-family:sans-serif;font-size:13;" transform="matrix(1 0 0 1 263 1933)">Template v.3.0</text>
  <text id="template-version" style="stroke:none;fill:black;font-family:sans-serif;font-size:13;" transform="matrix(1 0 0 1 3036 1933)">Template v.3.0</text>
 </g>
 <g id="Guides">
  <line id="Baseline-S" style="fill:none;stroke:#27AAE1;opacity:1;stroke-width:0.5;" x1="263" x2="3036" y1="696" y2="696"/>
  <line id="Capline-S" style="fill:none;stroke:#27AAE1;opacity:1;stroke-width:0.5;" x1="263" x2="3036" y1="625.541" y2="625.541"/>
  <line id="Baseline-M" style="fill:none;stroke:#27AAE1;opacity:1;stroke-width:0.5;" x1="263" x2="3036" y1="1126" y2="1126"/>
  <line id="Capline-M" style="fill:none;stroke:#27AAE1;opacity:1;stroke-width:0.5;" x1="263" x2="3036" y1="1055.54" y2="1055.54"/>
  <line id="Baseline-L" style="fill:none;stroke:#27AAE1;opacity:1;stroke-width:0.5;" x1="263" x2="3036" y1="1556" y2="1556"/>
  <line id="Capline-L" style="fill:none;stroke:#27AAE1;opacity:1;stroke-width:0.5;" x1="263" x2="3036" y1="1485.54" y2="1485.54"/>
  <line id="left-margin-Regular-M" style="fill:none;stroke:#00AEEF;stroke-width:0.5;opacity:1.0;" x1="1391.0" x2="1391.0" y1="1030.79" y2="1150.12"/>
  <line id="right-margin-Regular-M" style="fill:none;stroke:#00AEEF;stroke-width:0.5;opacity:1.0;" x1="1487.305" x2="1487.305" y1="1030.79" y2="1150.12"/>
 </g>
 <g id="Symbols">
  <g id="Regular-M" transform="matrix(1 0 0 1 1391.0 1126)">
   <path d="M81.225,0.33 L61.96,0.33 Q60.295,0.33 59.235,-0.31 Q58.175,-0.95 57.46,-2.42 L26.825,-70.825 L33.575,-70.825 L48.15,-38.1 L62.73,-70.83 L69.48,-70.83 L51.535,-30.62 L60.265,-10.83 L81.23,-10.83 Z M15.075,0.33 L15.075,-10.825 L36.035,-10.825 L41.055,-22.115 L44.44,-14.805 L38.84,-2.42 Q38.12,-0.95 37.11,-0.31 Q36.1,0.33 34.345,0.33 Z M86.225,0.33 L86.225,-10.825 L90.46,-10.825 Q92.105,-10.825 93.205,-9.725 Q94.305,-8.625 94.305,-6.98 L94.305,0.33 Z M2,0.33 L2,-6.98 Q2,-8.625 3.1,-9.73 Q4.2,-10.83 5.84,-10.83 L10.075,-10.83 L10.075,0.33 Z"/>
  </g>
 </g>
</svg>
